<?xml version="1.0" encoding="UTF-8" standalone="no"?><!DOCTYPE svg PUBLIC "-//W3C//DTD SVG 1.1//EN" "http://www.w3.org/Graphics/SVG/1.1/DTD/svg11.dtd"><svg width="100%" height="100%" viewBox="0 0 2250 2250" version="1.1" xmlns="http://www.w3.org/2000/svg" xmlns:xlink="http://www.w3.org/1999/xlink" xml:space="preserve" xmlns:serif="http://www.serif.com/" style="fill-rule:evenodd;clip-rule:evenodd;stroke-linejoin:round;stroke-miterlimit:2;"><rect x="-18.426" y="1126.69" width="2277.14" height="1151.42" style="fill:#0a0885;"/><clipPath id="_clip1"><rect x="-18.426" y="1126.69" width="2277.14" height="1151.42"/></clipPath><g clip-path="url(#_clip1)"><g transform="matrix(5.94639,0,0,6.13078,-1644.76,-3064.29)"><g transform="matrix(378.355,0,0,378.355,340.619,733.33)"><path d="M0.353,-0.493l-0.219,0.346c0.034,-0.047 0.06,-0.078 0.076,-0.094c0.017,-0.016 0.033,-0.024 0.049,-0.024c0.018,-0 0.033,0.007 0.044,0.022c0.012,0.015 0.018,0.034 0.018,0.056c-0,0.049 -0.031,0.097 -0.094,0.145c-0.046,0.035 -0.088,0.053 -0.124,0.053c-0.017,0 -0.031,-0.006 -0.041,-0.019c-0.011,-0.013 -0.016,-0.03 -0.016,-0.05c-0,-0.025 0.016,-0.062 0.047,-0.112l0.202,-0.324c0.009,0.002 0.018,0.004 0.028,0.004c0.008,-0 0.018,-0.001 0.03,-0.003Zm-0.068,0.268c0,-0.022 -0.009,-0.033 -0.027,-0.033c-0.024,0 -0.064,0.039 -0.122,0.118c-0.043,0.058 -0.064,0.098 -0.064,0.118c-0,0.017 0.008,0.026 0.025,0.026c0.029,-0 0.068,-0.029 0.116,-0.088c0.048,-0.058 0.072,-0.105 0.072,-0.141Z" style="fill:#fff;fill-rule:nonzero;"/></g><g transform="matrix(378.355,0,0,378.355,451.287,733.33)"><path d="M0.323,-0.187c0,0.053 -0.033,0.101 -0.099,0.145c-0.054,0.035 -0.096,0.053 -0.126,0.053c-0.021,0 -0.031,-0.01 -0.031,-0.029c-0,-0.006 0.002,-0.014 0.005,-0.024l-0.187,0.312c-0.012,-0.003 -0.021,-0.004 -0.028,-0.004c-0.011,0 -0.021,0.002 -0.032,0.006l0.401,-0.659c0.009,0.003 0.017,0.004 0.026,0.004c0.009,0 0.019,-0.001 0.032,-0.004l-0.145,0.234c0.035,-0.046 0.06,-0.076 0.076,-0.091c0.016,-0.014 0.032,-0.021 0.047,-0.021c0.017,-0 0.032,0.007 0.044,0.022c0.011,0.015 0.017,0.034 0.017,0.056Zm-0.036,-0.039c0,-0.021 -0.009,-0.032 -0.028,-0.032c-0.024,0 -0.064,0.038 -0.12,0.115c-0.043,0.059 -0.065,0.1 -0.065,0.122c0,0.017 0.008,0.025 0.023,0.025c0.03,-0 0.069,-0.029 0.118,-0.088c0.048,-0.058 0.072,-0.106 0.072,-0.142Z" style="fill:#fff;fill-rule:nonzero;"/></g></g></g><rect x="-18.529" y="-22.771" width="2277.14" height="1151.42"/><clipPath id="_clip2"><rect x="-18.529" y="-22.771" width="2277.14" height="1151.42"/></clipPath><g clip-path="url(#_clip2)"><g transform="matrix(5.94639,0,0,6.13078,-1644.76,-3064.29)"><g transform="matrix(378.355,0,0,378.355,340.619,733.33)"><path d="M0.353,-0.493l-0.219,0.346c0.034,-0.047 0.06,-0.078 0.076,-0.094c0.017,-0.016 0.033,-0.024 0.049,-0.024c0.018,-0 0.033,0.007 0.044,0.022c0.012,0.015 0.018,0.034 0.018,0.056c-0,0.049 -0.031,0.097 -0.094,0.145c-0.046,0.035 -0.088,0.053 -0.124,0.053c-0.017,0 -0.031,-0.006 -0.041,-0.019c-0.011,-0.013 -0.016,-0.03 -0.016,-0.05c-0,-0.025 0.016,-0.062 0.047,-0.112l0.202,-0.324c0.009,0.002 0.018,0.004 0.028,0.004c0.008,-0 0.018,-0.001 0.03,-0.003Zm-0.068,0.268c0,-0.022 -0.009,-0.033 -0.027,-0.033c-0.024,0 -0.064,0.039 -0.122,0.118c-0.043,0.058 -0.064,0.098 -0.064,0.118c-0,0.017 0.008,0.026 0.025,0.026c0.029,-0 0.068,-0.029 0.116,-0.088c0.048,-0.058 0.072,-0.105 0.072,-0.141Z" style="fill:#868686;fill-rule:nonzero;"/></g><g transform="matrix(378.355,0,0,378.355,451.287,733.33)"><path d="M0.323,-0.187c0,0.053 -0.033,0.101 -0.099,0.145c-0.054,0.035 -0.096,0.053 -0.126,0.053c-0.021,0 -0.031,-0.01 -0.031,-0.029c-0,-0.006 0.002,-0.014 0.005,-0.024l-0.187,0.312c-0.012,-0.003 -0.021,-0.004 -0.028,-0.004c-0.011,0 -0.021,0.002 -0.032,0.006l0.401,-0.659c0.009,0.003 0.017,0.004 0.026,0.004c0.009,0 0.019,-0.001 0.032,-0.004l-0.145,0.234c0.035,-0.046 0.06,-0.076 0.076,-0.091c0.016,-0.014 0.032,-0.021 0.047,-0.021c0.017,-0 0.032,0.007 0.044,0.022c0.011,0.015 0.017,0.034 0.017,0.056Zm-0.036,-0.039c0,-0.021 -0.009,-0.032 -0.028,-0.032c-0.024,0 -0.064,0.038 -0.12,0.115c-0.043,0.059 -0.065,0.1 -0.065,0.122c0,0.017 0.008,0.025 0.023,0.025c0.03,-0 0.069,-0.029 0.118,-0.088c0.048,-0.058 0.072,-0.106 0.072,-0.142Z" style="fill:#868686;fill-rule:nonzero;"/></g></g></g></svg>