<?xml version="1.0" encoding="UTF-8" standalone="no"?>
<!DOCTYPE svg PUBLIC "-//W3C//DTD SVG 1.1//EN" "http://www.w3.org/Graphics/SVG/1.1/DTD/svg11.dtd">
<svg width="100%" height="100%" viewBox="0 0 18355 9334" version="1.1" xmlns="http://www.w3.org/2000/svg" xmlns:xlink="http://www.w3.org/1999/xlink" xml:space="preserve" xmlns:serif="http://www.serif.com/" style="fill-rule:evenodd;clip-rule:evenodd;stroke-linejoin:round;stroke-miterlimit:2;">
    <g>
        <g>
            <path d="M233.936,9324.2l-0,-1191.3l1055.32,-0c40.803,-0 77.897,8.273 111.281,26.473c35.239,18.201 61.205,41.365 81.606,71.147c20.402,31.437 29.675,64.529 29.675,100.929l0,253.15c0,14.892 -1.854,29.783 -7.418,44.674c-3.71,14.891 -9.274,29.782 -16.693,43.019c27.821,36.401 48.222,67.838 61.205,94.311c12.983,26.473 20.402,52.946 20.402,81.074l-0,277.969c-0,36.401 -9.274,69.492 -29.675,99.275c-20.402,31.437 -46.367,54.601 -81.606,72.801c-33.385,18.201 -70.478,26.473 -111.282,26.473l-1112.81,0Zm222.562,-134.02l890.248,-0c20.402,-0 37.094,-6.619 50.077,-19.855c14.837,-11.582 22.256,-26.473 22.256,-44.674l0,-277.969c0,-18.2 -7.419,-33.091 -22.256,-46.328c-12.983,-11.582 -29.675,-18.2 -50.077,-18.2l-890.248,-0c-20.402,-0 -37.094,6.618 -51.931,18.2c-12.983,13.237 -20.402,28.128 -20.402,46.328l0,277.969c0,18.201 7.419,33.092 20.402,44.674c14.837,13.236 31.529,19.855 51.931,19.855Zm-0,-541.047l832.753,0c20.402,0 37.094,-6.618 50.077,-19.855c12.983,-11.582 20.401,-26.473 20.401,-44.674l0,-253.15c0,-18.2 -7.418,-33.091 -20.401,-46.328c-12.983,-11.582 -29.675,-18.2 -50.077,-18.2l-832.753,-0c-20.402,-0 -37.094,6.618 -51.931,18.2c-12.983,13.237 -20.402,28.128 -20.402,46.328l0,253.15c0,18.201 7.419,33.092 20.402,44.674c14.837,13.237 31.529,19.855 51.931,19.855Z" style="fill:#fff;fill-rule:nonzero;"/>
        </g>
        <g>
            <path d="M1773.32,9324.2l0,-1192.95l150.23,0l-0,1058.93l1185.14,-0l0,134.02l-1335.37,0Z" style="fill:#fff;fill-rule:nonzero;"/>
        </g>
        <g>
            <path d="M3435.13,9324.2c-40.803,0 -77.897,-8.272 -113.136,-26.473c-33.384,-18.2 -59.35,-41.364 -79.751,-71.147c-20.402,-31.437 -29.675,-64.528 -29.675,-100.929l-0,-992.746l150.229,-0l0,992.746c0,18.201 7.419,33.092 20.402,44.674c14.837,13.236 31.529,19.855 51.931,19.855l890.249,-0c20.401,-0 37.093,-6.619 50.076,-18.201c14.838,-13.236 22.256,-28.127 22.256,-46.328l0,-992.746l150.23,-0l-0,992.746c-0,36.401 -9.274,69.492 -29.675,100.929c-20.402,29.783 -46.367,52.947 -79.752,71.147c-35.239,18.201 -72.332,26.473 -113.135,26.473l-890.249,0Z" style="fill:#fff;fill-rule:nonzero;"/>
        </g>
        <g>
            <path d="M4755.66,9324.2l-0,-1191.3l1218.53,-0l-0,134.021l-1068.3,-0l0,393.789l858.719,0l0,135.675l-858.719,0l0,393.79l1068.3,-0l-0,134.02l-1218.53,0Z" style="fill:#fff;fill-rule:nonzero;"/>
        </g>
        <g>
            <path d="M6172.61,9324.2l0,-1189.64l1112.81,-0c40.803,-0 77.897,8.272 113.136,26.473c33.384,18.2 59.35,43.019 79.751,72.801c20.402,29.783 29.675,62.874 29.675,99.275l0,349.116c0,36.4 -9.273,69.492 -29.675,99.274c-20.401,29.783 -46.367,54.601 -81.606,72.802c-33.384,18.2 -70.478,26.473 -111.281,26.473l-962.581,-0l-0,443.426l-150.23,0Zm222.563,-579.102l890.248,0c20.402,0 37.094,-6.618 50.077,-18.2c14.837,-11.582 22.256,-26.473 22.256,-44.673l-0,-349.116c-0,-18.201 -7.419,-33.092 -22.256,-44.674c-12.983,-13.236 -29.675,-19.855 -50.077,-19.855l-890.248,0c-20.402,0 -37.094,6.619 -51.932,19.855c-12.982,11.582 -20.401,26.473 -20.401,44.674l-0,349.116c-0,18.2 7.419,33.091 20.401,44.673c14.838,11.582 31.53,18.2 51.932,18.2Z" style="fill:#fff;fill-rule:nonzero;"/>
        </g>
        <g>
            <path d="M7641.6,9324.2l0,-1191.3l150.23,-0l-0,527.81l1066.44,0l0,-527.81l152.084,-0l0,1191.3l-152.084,0l0,-527.81l-1066.44,0l-0,527.81l-150.23,0Z" style="fill:#fff;fill-rule:nonzero;"/>
        </g>
        <g>
            <path d="M9436.92,9324.2c-40.803,0 -77.896,-8.272 -113.135,-26.473c-33.385,-18.2 -59.35,-41.364 -79.752,-71.147c-20.401,-31.437 -29.675,-64.528 -29.675,-100.929l0,-794.197c0,-36.4 9.274,-69.492 29.675,-100.929c20.402,-29.782 46.367,-52.946 79.752,-71.147c35.239,-18.2 72.332,-26.473 113.135,-26.473l890.249,-0c40.803,-0 77.897,8.273 113.136,26.473c33.384,18.201 59.35,41.365 79.751,72.802c20.402,29.782 29.675,62.874 29.675,99.274l0,794.197c0,36.401 -9.273,69.492 -29.675,100.929c-20.401,29.783 -46.367,52.947 -81.606,71.147c-33.384,18.201 -70.478,26.473 -111.281,26.473l-890.249,0Zm0,-134.02l890.249,-0c20.402,-0 37.094,-6.619 50.076,-18.201c14.838,-13.236 22.257,-28.127 22.257,-46.328l-0,-794.197c-0,-18.2 -7.419,-33.091 -22.257,-44.673c-12.982,-13.237 -29.674,-19.855 -50.076,-19.855l-890.249,-0c-20.401,-0 -37.093,6.618 -51.931,19.855c-12.983,11.582 -20.401,26.473 -20.401,44.673l-0,794.197c-0,18.201 7.418,33.092 20.401,46.328c14.838,11.582 31.53,18.201 51.931,18.201Z" style="fill:#fff;fill-rule:nonzero;"/>
        </g>
        <g>
            <path d="M10757.5,9324.2l0,-1191.3l1218.53,-0l0,134.021l-1068.3,-0l-0,393.789l858.719,0l-0,135.675l-858.719,0l-0,393.79l1068.3,-0l0,134.02l-1218.53,0Z" style="fill:#fff;fill-rule:nonzero;"/>
        </g>
        <g>
            <path d="M12174.4,9324.2l-0,-1191.3l205.87,-0l979.273,1039.07l0,-1039.07l150.23,-0l-0,1191.3l-205.87,0l-979.274,-1039.07l0,1039.07l-150.229,0Z" style="fill:#fff;fill-rule:nonzero;"/>
        </g>
        <g>
            <rect x="13736" y="8132.9" width="152.084" height="1191.3" style="fill:#225aff;stroke:#1a32e6;stroke-width:17.57px;"/>
        </g>
        <g>
            <rect x="14133" y="8132.9" width="152.084" height="1191.3" style="fill:#225aff;stroke:#1a32e6;stroke-width:17.57px;"/>
        </g>
        <g>
            <rect x="14529.9" y="8132.9" width="152.084" height="1191.3" style="fill:#225aff;stroke:#1a32e6;stroke-width:17.57px;"/>
        </g>
        <g>
            <path d="M14889.6,9324.2l-0,-1.654l560.114,-593.993l-560.114,-593.993l-0,-1.655l192.887,-0l465.526,491.409l463.671,-491.409l192.887,-0l0,1.655l-560.115,593.993l561.97,593.993l-0,1.654l-194.742,0l-463.671,-491.409l-465.526,491.409l-192.887,0Z" style="fill:#fff;fill-rule:nonzero;"/>
        </g>
    </g>
    <path d="M5396.5,6133.14l12640.8,-3582.69l-1656.59,4974.14l-16376.3,160.237l5392.17,-1551.68l-0.037,-0.003Z" style="fill:#0043ce;stroke:#fff;stroke-width:106.22px;stroke-linecap:round;stroke-miterlimit:1.5;"/>
    <path id="_002d9c" serif:id="002d9c" d="M5396.5,6133.14l12640.8,-3582.69l-4601.62,4997.58l-13431.3,136.8l5392.17,-1551.68l-0.042,-0.006Z" style="fill:#002d9c;stroke:#fff;stroke-width:106.22px;stroke-linecap:round;stroke-miterlimit:1.5;"/>
    <path id="_002d9c1" serif:id="002d9c" d="M5396.5,6133.14l12640.8,-3582.69l-8008.88,5031.62l-10024,102.759l5392.17,-1551.68l-0.042,-0.003Z" style="fill:#001d6c;stroke:#fff;stroke-width:106.22px;stroke-linecap:round;stroke-miterlimit:1.5;"/>
    <path id="_002d9c2" serif:id="002d9c" d="M5396.5,6133.14l12640.8,-3582.69l-11991.5,5056.85l-6041.38,77.548l5392.17,-1551.68l-0.042,-0.018Z" style="fill:#001141;stroke:#fff;stroke-width:106.22px;stroke-linecap:round;stroke-linejoin:miter;stroke-miterlimit:1;"/>
    <path d="M8440.25,5270.45c-21.5,-704.237 2039.35,-1598.21 4696.25,-2022.38c1181.77,-188.668 2289.06,-253.676 3176.64,-208.992l-289.238,81.978c-814.862,-30.795 -1811.76,32.777 -2872.34,202.096c-2453.02,391.621 -4366.58,1208.43 -4422.04,1865.31c-2.696,31.94 -1,63.502 5.242,94.618c134.612,671.049 2332.28,882.451 4904.58,471.785c1572.25,-251.007 2922.89,-676.691 3704.7,-1122.98c497.275,-283.865 764.421,-576.064 712.087,-836.95c-27.062,-134.896 -137.487,-251.219 -317.571,-347.646l54.046,-162.278c317.829,117.477 513.071,273.238 551.334,463.975c65.25,325.287 -337.275,696.418 -1053.96,1045.23c-853.1,415.203 -2151.33,798.774 -3635.58,1035.73c-2731.15,436.023 -5064.54,211.568 -5207.46,-500.918c-3.883,-19.37 -6.113,-38.903 -6.712,-58.581l0.012,-0Z" style="fill:#f30;stroke:#fff;stroke-width:49.36px;stroke-linecap:round;stroke-miterlimit:1.5;"/>
    <path d="M14422.3,5664.32l-1688.07,499.906c472.249,-394.691 470.758,-281.606 -85.838,-477.911l1773.91,-21.995Z" style="fill:#ff0008;stroke:#fff;stroke-width:35.63px;stroke-linecap:round;stroke-miterlimit:1.5;"/>
</svg>
