<?xml version="1.0" encoding="UTF-8" standalone="no"?><!DOCTYPE svg PUBLIC "-//W3C//DTD SVG 1.1//EN" "http://www.w3.org/Graphics/SVG/1.1/DTD/svg11.dtd"><svg width="100%" height="100%" viewBox="0 0 140425 28281" version="1.1" xmlns="http://www.w3.org/2000/svg" xmlns:xlink="http://www.w3.org/1999/xlink" xml:space="preserve" xmlns:serif="http://www.serif.com/" style="fill-rule:evenodd;clip-rule:evenodd;stroke-linejoin:round;stroke-miterlimit:1.5;"><g><path d="M33145.4,21107.5l2850.93,-13556.7l6900.43,-0c266.8,-0 489.548,94.144 664.284,301.261c186.862,207.117 301.21,470.72 363.337,809.639c58.167,357.748 39.611,734.324 -47.501,1148.56l-605.823,2880.81c-35.636,169.459 -83.4,338.919 -155.419,508.378c-59.891,169.459 -131.91,338.919 -212.096,489.549c94.798,414.234 152.965,771.982 174.502,1073.24c21.537,301.261 6.693,602.522 -60.621,922.612l-665.217,3163.24c-87.112,414.234 -226.941,790.81 -431.615,1129.73c-208.633,357.747 -433.85,621.351 -707.824,828.468c-261.848,207.117 -524.192,301.261 -790.992,301.261l-7276.38,-0Zm1776.01,-1525.13l5821.1,-0c133.401,-0 258.385,-75.316 374.953,-225.946c124.736,-131.802 208.882,-301.261 252.437,-508.378l665.218,-3163.24c43.556,-207.117 30.683,-376.577 -34.658,-527.207c-57.174,-131.802 -150.481,-207.117 -283.881,-207.117l-5821.1,-0c-133.4,-0 -258.384,75.315 -383.12,207.117c-116.568,150.63 -200.714,320.09 -244.27,527.207l-665.217,3163.24c-43.556,207.117 -30.684,376.576 26.49,508.378c65.341,150.63 158.649,225.946 292.049,225.946Zm1294.8,-6157.02l5445.16,-0c133.4,-0 258.385,-75.316 374.953,-225.946c112.608,-131.802 196.754,-301.261 240.31,-508.378l605.823,-2880.81c43.556,-207.117 30.683,-376.576 -22.531,-527.207c-57.174,-131.802 -150.481,-207.117 -283.881,-207.117l-5445.16,0c-133.401,0 -258.385,75.315 -383.121,207.117c-116.568,150.631 -200.714,320.09 -244.27,527.207l-605.822,2880.81c-43.556,207.117 -30.684,376.576 26.49,508.378c65.341,150.63 158.648,225.946 292.049,225.946Z" style="fill:#adadad;fill-rule:nonzero;"/></g><g><path d="M43211,21107.5l2854.89,-13575.6l982.311,0l-2534.16,12050.4l7749.34,-0l-320.729,1525.13l-8731.66,-0Z" style="fill:#adadad;fill-rule:nonzero;"/></g><g><path d="M54077.1,21107.5c-266.8,-0 -489.548,-94.144 -676.411,-301.261c-174.736,-207.117 -289.083,-470.721 -351.21,-809.639c-58.167,-357.748 -39.611,-734.324 47.501,-1148.56l2375.78,-11297.3l982.311,-0l-2375.78,11297.3c-43.556,207.117 -30.684,376.576 26.49,508.378c65.341,150.63 158.649,225.946 292.049,225.946l5821.1,-0c133.401,-0 258.385,-75.316 370.993,-207.117c128.696,-150.631 212.842,-320.09 256.398,-527.207l2375.78,-11297.3l982.311,-0l-2375.78,11297.3c-87.112,414.234 -226.941,790.81 -435.574,1148.56c-204.674,338.918 -429.891,602.522 -691.738,809.639c-273.975,207.117 -536.319,301.261 -803.119,301.261l-5821.1,-0Z" style="fill:#adadad;fill-rule:nonzero;"/></g><g><path d="M62711.8,21107.5l2850.93,-13556.7l7967.64,-0l-320.729,1525.13l-6985.32,0l-942.391,4481.26l5614.94,0l-324.69,1543.96l-5614.94,0l-942.391,4481.26l6985.32,-0l-320.73,1525.13l-7967.64,-0Z" style="fill:#adadad;fill-rule:nonzero;"/></g><g><path d="M71977,21107.5l2846.97,-13537.9l7276.38,-0c266.801,-0 489.549,94.144 676.412,301.261c174.735,207.117 285.123,489.549 347.25,828.468c62.127,338.918 43.571,715.495 -43.541,1129.73l-835.481,3972.88c-87.112,414.234 -226.941,790.81 -431.615,1129.73c-204.673,338.919 -433.85,621.351 -707.824,828.468c-261.848,207.117 -524.192,301.261 -790.992,301.261l-6294.07,0l-1061.18,5046.12l-982.312,-0Zm2841.15,-6590.09l5821.1,0c133.4,0 258.385,-75.315 370.993,-207.117c124.736,-131.802 208.882,-301.261 252.438,-508.378l835.481,-3972.88c43.556,-207.117 30.683,-376.577 -38.618,-508.378c-53.214,-150.631 -146.521,-225.946 -279.921,-225.946l-5821.1,-0c-133.4,-0 -258.384,75.315 -387.08,225.946c-112.608,131.801 -196.754,301.261 -240.31,508.378l-835.481,3972.88c-43.556,207.117 -30.684,376.576 26.49,508.378c69.301,131.802 162.608,207.117 296.009,207.117Z" style="fill:#adadad;fill-rule:nonzero;"/></g><g><path d="M81581.8,21107.5l2850.93,-13556.7l982.312,-0l-1263.12,6006.39l6973.2,0l1263.12,-6006.39l994.438,-0l-2850.93,13556.7l-994.439,-0l1263.12,-6006.39l-6973.2,0l-1263.12,6006.39l-982.311,-0Z" style="fill:#adadad;fill-rule:nonzero;"/></g><g><path d="M93321,21107.5c-266.8,-0 -489.548,-94.144 -676.411,-301.261c-174.736,-207.117 -289.083,-470.721 -351.21,-809.639c-58.167,-357.748 -39.611,-734.324 47.5,-1148.56l1900.62,-9037.83c87.112,-414.234 226.941,-790.81 435.574,-1148.56c204.674,-338.919 429.891,-602.522 691.738,-809.639c273.975,-207.117 536.319,-301.261 803.119,-301.261l5821.1,-0c266.801,-0 489.548,94.144 676.411,301.261c174.736,207.117 289.083,470.72 347.251,828.468c62.127,338.919 43.57,715.495 -43.541,1129.73l-1900.62,9037.83c-87.112,414.234 -226.941,790.81 -435.574,1148.56c-204.674,338.918 -429.891,602.522 -703.865,809.639c-261.848,207.117 -524.192,301.261 -790.992,301.261l-5821.1,-0Zm320.73,-1525.13l5821.1,-0c133.401,-0 258.385,-75.316 370.993,-207.117c128.696,-150.631 212.842,-320.09 256.398,-527.207l1900.62,-9037.83c43.556,-207.117 30.684,-376.576 -38.617,-508.378c-53.214,-150.631 -146.521,-225.946 -279.922,-225.946l-5821.1,0c-133.401,0 -258.385,75.315 -387.08,225.946c-112.609,131.802 -196.754,301.261 -240.31,508.378l-1900.62,9037.83c-43.556,207.117 -30.684,376.576 22.53,527.207c69.301,131.801 162.609,207.117 296.009,207.117Z" style="fill:#adadad;fill-rule:nonzero;"/></g><g><path d="M101956,21107.5l2850.93,-13556.7l7967.64,-0l-320.729,1525.13l-6985.32,0l-942.391,4481.26l5614.94,0l-324.69,1543.96l-5614.94,0l-942.391,4481.26l6985.32,-0l-320.73,1525.13l-7967.64,-0Z" style="fill:#adadad;fill-rule:nonzero;"/></g><g><path d="M111221,21107.5l2850.93,-13556.7l1346.13,-0l3916.57,11824.5l2486.65,-11824.5l982.311,-0l-2850.93,13556.7l-1346.13,-0l-3916.57,-11824.5l-2486.65,11824.5l-982.311,-0Z" style="fill:#adadad;fill-rule:nonzero;"/></g><g><path d="M125278,7550.73l-994.438,-0l-2850.93,13556.7l994.439,-0l2850.93,-13556.7Z" style="fill:#0f62fe;"/></g><g><path d="M127873,7550.73l-994.438,-0l-2850.93,13556.7l994.439,-0l2850.93,-13556.7Z" style="fill:#0f62fe;"/></g><g><path d="M130468,7550.73l-994.439,-0l-2850.93,13556.7l994.438,-0l2850.93,-13556.7Z" style="fill:#0f62fe;"/></g><g><path d="M128975,21107.5l3.96,-18.829l5083.95,-6759.55l-2240.94,-6759.55l3.959,-18.829l1261.24,-0l1867.94,5592.16l4207.83,-5592.16l1261.24,-0l-3.959,18.829l-5083.95,6759.55l2253.07,6759.55l-3.96,18.829l-1273.37,-0l-1855.82,-5592.16l-4219.96,5592.16l-1261.24,-0Z" style="fill:#adadad;fill-rule:nonzero;"/></g><path d="M4987.98,19657.5l11569.4,-19464.9l10240.7,11410.1l-26605.5,16485.2l4795.58,-8430.33l-0.137,0l0.033,0.034l0.021,-0.034Z" style="fill:#1200ff;stroke:#fff;stroke-width:272.42px;"/><path id="_002d9c" serif:id="002d9c" d="M4987.98,19657.5l11569.4,-19464.9l7381.54,13195.5l-23746.3,14699.8l4795.58,-8430.33l-0.154,-0.016l0.017,0.033l-0.029,-0.017Z" style="fill:#1200ff;stroke:#fff;stroke-width:272.42px;"/><path id="_002d9c1" serif:id="002d9c" d="M4987.98,19657.5l11569.4,-19464.9l3130.52,15833.7l-19495.3,12061.5l4795.54,-8430.33l-0.142,-0l-0.016,0.033l0.054,0.008Z" style="fill:#1200ff;stroke:#fff;stroke-width:272.42px;"/><path id="_002d9c2" serif:id="002d9c" d="M4987.98,19657.5l11569.4,-19464.9l-3833.56,20138.2l-12531.2,7757.12l4795.54,-8430.33l-0.225,-0.088l0,0.017l0.034,-0.013Z" style="fill:#1200ff;stroke:#fff;stroke-width:272.42px;stroke-linejoin:miter;stroke-miterlimit:1;"/><path d="M7268.77,15104.8c-4292.88,-3860.3 -4161.94,-8761.12 387.342,-11086.9c2023.49,-1034.46 4591.67,-1391.08 7232.33,-1146.35l-279.895,449.445c-2362.87,-168.612 -4644.67,180.088 -6460.67,1108.49c-4200.21,2147.26 -4401.54,6625.12 -599.183,10225.8c184.895,175.088 379.254,348.075 583.058,518.646c4395.54,3678.35 11540,4836.67 15944.5,2584.95c2692.12,-1376.29 3741.43,-3710.02 3146.7,-6156.54c-378.316,-1556.11 -1421.74,-3157.88 -3130.59,-4587.92c-883.613,-739.446 -1878.3,-1377.03 -2939.5,-1905.58l-831.546,-889.546c1555.92,643.887 3014.46,1497.67 4263.83,2543.18c2130.71,1783.05 3287.03,3817.53 3469.57,5729.71c217.275,2276.15 -945.246,4379.04 -3486.65,5678.29c-4676.42,2390.73 -12262.1,1160.92 -16929,-2744.57c-126.875,-106.162 -250.312,-213.229 -370.262,-321.112l0.037,-0l0,-0.05Z" style="fill:#050041;stroke:#fff;stroke-width:272.42px;stroke-linecap:round;"/><path d="M25624.2,17262.4l-1504.67,2740.68c-1111.72,-2163.64 -435.575,-1543.75 -3103.65,-2619.69l4608.33,-120.988l-0.017,0Z" style="fill:#1200ff;stroke:#fff;stroke-width:272.42px;stroke-linecap:round;"/></svg>