<?xml version="1.0" encoding="UTF-8" standalone="no"?>
<!DOCTYPE svg PUBLIC "-//W3C//DTD SVG 1.1//EN" "http://www.w3.org/Graphics/SVG/1.1/DTD/svg11.dtd">
<svg width="100%" height="100%" viewBox="0 0 4405 2240" version="1.1" xmlns="http://www.w3.org/2000/svg" xmlns:xlink="http://www.w3.org/1999/xlink" xml:space="preserve" xmlns:serif="http://www.serif.com/" style="fill-rule:evenodd;clip-rule:evenodd;stroke-linejoin:round;stroke-miterlimit:1.5;">
    <path d="M277.883,1435.07l388.1,-859.846l326.498,504.098l-875.679,728.153l161.085,-372.404l-0.004,-0.001Z" style="fill:#1b1b1b;fill-opacity:0;stroke:#083495;stroke-width:16.62px;"/>
    <path id="_002d9c" serif:id="002d9c" d="M277.883,1435.07l388.1,-859.846l232.385,582.959l-781.565,649.292l161.085,-372.404l-0.005,-0.001Z" style="fill:#1b1b1b;fill-opacity:0;stroke:#083495;stroke-width:16.62px;"/>
    <path id="_002d9c1" serif:id="002d9c" d="M277.883,1435.07l388.1,-859.846l92.467,699.492l-641.648,532.759l161.085,-372.404l-0.004,-0.001Z" style="fill:#1b1b1b;fill-opacity:0;stroke:#083495;stroke-width:16.62px;"/>
    <path id="_002d9c2" serif:id="002d9c" d="M277.883,1435.07l388.1,-859.846l-136.739,889.62l-412.439,342.634l161.085,-372.404l-0.007,-0.004Z" style="fill:#1b1b1b;fill-opacity:0;stroke:#083495;stroke-width:16.62px;stroke-linejoin:miter;stroke-miterlimit:1;"/>
    <path d="M298.975,1427.33l367.008,-852.109l324.777,499.562l-843.909,721.6l152.128,-369.053l-0.004,-0Z" style="fill:#003be4;stroke:#fff;stroke-width:16.62px;"/>
    <path id="_002d9c3" serif:id="002d9c" d="M298.975,1427.33l367.008,-852.109l234.087,577.714l-753.218,643.449l152.128,-369.053l-0.005,-0.001Z" style="fill:#003be4;stroke:#fff;stroke-width:16.62px;"/>
    <path id="_002d9c4" serif:id="002d9c" d="M298.975,1427.33l367.008,-852.109l99.248,693.197l-618.379,527.965l152.127,-369.053l-0.004,-0Z" style="fill:#003be4;stroke:#fff;stroke-width:16.62px;"/>
    <path id="_002d9c5" serif:id="002d9c" d="M298.975,1427.33l367.008,-852.109l-121.648,881.615l-397.48,339.551l152.127,-369.053l-0.007,-0.004Z" style="fill:#003be4;stroke:#fff;stroke-width:16.62px;stroke-linejoin:miter;stroke-miterlimit:1;"/>
    <path d="M371.329,1228.02c-136.148,-169.017 -131.982,-383.57 12.317,-485.371c64.183,-45.28 145.64,-60.882 229.396,-50.158l-8.879,19.675c-74.944,-7.391 -147.318,7.866 -204.919,48.503c-133.226,93.989 -139.625,290.024 -19.034,447.674c5.864,7.666 12.028,15.24 18.492,22.708c139.406,161.052 366.009,211.789 505.712,113.229c85.391,-60.242 118.679,-162.406 99.823,-269.515c-11.995,-68.127 -45.085,-138.255 -99.282,-200.868c-28.024,-32.375 -59.571,-60.292 -93.228,-83.435l-26.372,-38.947c49.348,28.195 95.607,65.578 135.231,111.354c67.576,78.069 104.246,167.141 110.03,250.855c6.885,99.648 -29.993,191.706 -110.604,248.576c-148.331,104.645 -388.928,50.776 -536.941,-120.221c-4.024,-4.648 -7.939,-9.336 -11.743,-14.059l0.001,-0Z" style="fill:#f30;stroke:#fff;stroke-width:16.62px;stroke-linecap:round;"/>
    <path d="M953.51,1322.55l-47.732,119.978c-35.255,-94.726 -13.811,-67.585 -98.433,-114.699l146.165,-5.279Z" style="fill:#ff0008;stroke:#fff;stroke-width:16.62px;stroke-linecap:round;"/>
    <path d="M2021.07,1305.94c-0,-70.294 -26.058,-109.408 -96.308,-139.495c76.263,-35.103 110.339,-101.384 110.339,-177.74c-0,-53.201 -20.045,-96.327 -58.13,-124.408c-39.171,-28.082 -79.289,-35.102 -191.706,-35.102l-153.591,0l-137.529,741.728l197.761,0c213.799,0 329.164,-117.341 329.164,-264.983Zm-140.439,23.105c0,62.281 -42.162,109.494 -156.602,109.494l-68.262,-0l35.135,-188.852l65.251,0c87.336,0 124.478,23.104 124.478,79.358Zm14.042,-309.195c-0,56.263 -31.107,95.446 -134.505,95.446l-44.17,-0l28.108,-153.717l56.217,0c61.235,0 94.35,20.093 94.35,58.271Z" style="fill:#4a4a4a;fill-opacity:0;fill-rule:nonzero;stroke:#d5d5d5;stroke-width:28.52px;stroke-miterlimit:2;"/>
    <path d="M2333.31,829.2l-133.513,0l-137.529,741.728l133.513,0l137.529,-741.728Z" style="fill:#4a4a4a;fill-opacity:0;fill-rule:nonzero;stroke:#d5d5d5;stroke-width:28.52px;stroke-miterlimit:2;"/>
    <path d="M2663.58,831.206c-22.085,-2.006 -30.116,-2.006 -39.151,-2.006c-95.367,0 -180.695,57.164 -216.834,195.753l-48.185,0l-21.081,111.303l48.185,0l-80.309,434.672l133.514,0l80.308,-434.672l78.302,0l21.081,-111.303l-78.301,0c6.023,-46.264 31.119,-67.384 80.308,-67.384l18.07,-0l24.093,-126.363Z" style="fill:#4a4a4a;fill-opacity:0;fill-rule:nonzero;stroke:#d5d5d5;stroke-width:28.52px;stroke-miterlimit:2;"/>
    <path d="M3199.64,1570.93l137.529,-741.728l-137.529,0l-100.387,539.986l-206.795,-539.986l-156.602,0l-137.529,741.728l137.529,0l100.386,-538.983l209.807,538.983l153.591,0Z" style="fill:#4a4a4a;fill-opacity:0;fill-rule:nonzero;stroke:#d5d5d5;stroke-width:28.52px;stroke-miterlimit:2;"/>
    <path d="M3829.06,1570.93l-144.556,-287.039l219.845,-268.975l-150.579,0l-129.498,167.609l-69.267,-167.609l-150.579,0l120.464,268.975l-250.966,287.039l160.618,0l152.587,-190.69l81.313,190.69l160.618,0Z" style="fill:#4a4a4a;fill-opacity:0;fill-rule:nonzero;stroke:#d5d5d5;stroke-width:28.52px;stroke-miterlimit:2;"/>
    <path d="M4065.97,1442.56l-134.518,0l-24.092,128.369l134.517,0l24.093,-128.369Z" style="fill:#4a4a4a;fill-opacity:0;fill-rule:nonzero;stroke:#d5d5d5;stroke-width:28.52px;stroke-miterlimit:2;"/>
</svg>
